<svg width="121" height="19" viewBox="0 0 121 19" fill="none" xmlns="http://www.w3.org/2000/svg">
<path d="M32.3079 15.5561L27.9551 10.3391L31.7451 5.83261H28.2365L25.1408 9.75942L23.7524 11.5545H23.6773L23.7336 9.72202V3.79014C23.7336 2.95599 23.0574 2.27979 22.2232 2.27979C21.3891 2.27979 20.7129 2.956 20.7129 3.79014V15.5561H23.5647L26.1915 12.4334L28.7619 15.5561H32.3079Z" fill="#FFF9D4"/>
<path d="M37.2436 5.55213C34.2791 5.55213 32.3654 6.31879 32.4592 8.84317H35.1422C35.2735 8.05781 35.8364 7.79602 37.1122 7.79602C38.5006 7.79602 39.0823 8.1139 39.0823 9.04886V9.79682H35.6863C33.1346 9.79682 31.9526 10.7692 31.9526 12.7326C31.9526 14.8082 33.266 15.8366 35.3861 15.8366C36.9997 15.8366 38.8008 15.2383 39.6264 13.8545L39.2886 14.5464L39.5513 15.5561H42.103V8.73097C42.103 6.63667 40.6208 5.55213 37.2436 5.55213ZM36.4743 13.574C35.4236 13.574 35.0296 13.1814 35.0296 12.583C35.0296 11.9659 35.4236 11.6293 36.1741 11.6293H39.0823V12.77C38.4443 13.2936 37.5625 13.574 36.6056 13.574H36.4743Z" fill="#FFF9D4"/>
<path d="M49.6816 5.57082C48.1806 5.57082 46.9235 6.1692 45.9291 7.87081L46.4732 6.84236L46.417 5.83261H43.4525V18.8098H46.4732V14.3594C47.2613 15.4252 48.4058 15.8366 49.6816 15.8366C52.6085 15.8366 54.4847 13.5553 54.4847 10.6944C54.4847 7.85212 52.6085 5.57082 49.6816 5.57082ZM48.9686 13.2001C47.4114 13.2001 46.4357 12.1529 46.4357 10.6944C46.4357 9.23585 47.4114 8.1887 48.9686 8.1887C50.5259 8.1887 51.4828 9.23585 51.4828 10.6944C51.4828 12.1529 50.5259 13.2001 48.9686 13.2001Z" fill="#FFF9D4"/>
<path d="M61.5736 5.57082C60.0726 5.57082 58.8156 6.1692 57.8212 7.87081L58.3653 6.84236L58.309 5.83261H55.3445V18.8098H58.3653V14.3594C59.1533 15.4252 60.2978 15.8366 61.5736 15.8366C64.5005 15.8366 66.3767 13.5553 66.3767 10.6944C66.3767 7.85212 64.5005 5.57082 61.5736 5.57082ZM60.8606 13.2001C59.3034 13.2001 58.3277 12.1529 58.3277 10.6944C58.3277 9.23585 59.3034 8.1887 60.8606 8.1887C62.4179 8.1887 63.3748 9.23585 63.3748 10.6944C63.3748 12.1529 62.4179 13.2001 60.8606 13.2001Z" fill="#FFF9D4"/>
<path d="M74.4461 8.39439V5.83261H71.7256V2.46678H68.7048V5.83261H66.5472V8.39439H68.7048V12.1155C68.7048 14.322 69.7555 15.6496 72.5699 15.6496H74.4461V12.957H73.1327C72.1946 12.957 71.7256 12.6204 71.7256 11.6293V8.39439H74.4461Z" fill="#FFF9D4"/>
<path d="M75.4462 15.5561H78.4669V5.83261C77.5178 6.31511 76.3953 6.31511 75.4462 5.83261V15.5561Z" fill="#FFF9D4"/>
<path d="M83.1277 15.5561H86.3548L90.52 5.83261H87.3867L84.7975 12.1903H84.685L82.1145 5.83261H78.9813L83.1277 15.5561Z" fill="#FFF9D4"/>
<path d="M95.2569 5.55213C92.2924 5.55213 90.3787 6.31879 90.4725 8.84317H93.1555C93.2868 8.05781 93.8497 7.79602 95.1255 7.79602C96.5139 7.79602 97.0956 8.1139 97.0956 9.04886V9.79682H93.6996C91.148 9.79682 89.9659 10.7692 89.9659 12.7326C89.9659 14.8082 91.2793 15.8366 93.3994 15.8366C95.013 15.8366 96.8141 15.2383 97.6397 13.8545L97.302 14.5464L97.5646 15.5561H100.116V8.73097C100.116 6.63667 98.6341 5.55213 95.2569 5.55213ZM94.4876 13.574C93.437 13.574 93.0429 13.1814 93.0429 12.583C93.0429 11.9659 93.437 11.6293 94.1874 11.6293H97.0956V12.77C96.4577 13.2936 95.5758 13.574 94.619 13.574H94.4876Z" fill="#FFF9D4"/>
<path d="M108.474 8.39439V5.83261H105.753V2.46678H102.733V5.83261H100.575V8.39439H102.733V12.1155C102.733 14.322 103.783 15.6496 106.598 15.6496H108.474V12.957H107.16C106.222 12.957 105.753 12.6204 105.753 11.6293V8.39439H108.474Z" fill="#FFF9D4"/>
<path d="M111.934 11.5919H119.551C119.852 7.79602 117.75 5.55213 114.298 5.55213C110.827 5.55213 108.895 7.79602 108.895 10.6944C108.895 13.5927 110.977 15.8366 114.467 15.8366C116.449 15.8366 118.042 15.1103 118.975 14.1402C119.642 13.448 118.967 12.5456 118.006 12.5456C117.385 12.5456 116.803 12.9584 116.239 13.2191C115.777 13.4331 115.182 13.5366 114.636 13.5366C113.135 13.5366 112.178 12.8074 111.934 11.5919ZM114.298 7.75862C115.555 7.75862 116.306 8.31959 116.587 9.77812H111.915C112.14 8.45049 112.91 7.75862 114.298 7.75862Z" fill="#FFF9D4"/>
<path d="M2.99513 10.5717C3.3549 11.553 3.94976 11.9344 4.81419 12.1822L4.98289 11.9225C5.16693 11.6301 5.23695 11.2254 5.25657 10.8569C5.26455 10.6552 5.29663 10.4449 5.52968 10.3607C5.76274 10.2764 5.99366 10.4098 6.07264 10.6252C6.09896 10.6971 6.12969 10.8305 6.12023 10.9785C6.10206 11.3013 6.00873 11.9403 5.69396 12.3974L5.19733 13.128C4.66419 13.9079 4.43129 14.4889 4.66528 15.1272C5.09233 16.292 6.17383 16.7595 7.14621 16.4082C7.55606 16.2601 8.10684 15.8261 8.42815 15.2131L9.26938 13.6352C9.4702 13.2645 9.55257 12.6204 9.54297 12.2715C9.53706 12.0568 9.61081 11.8856 9.81975 11.8101C10.0448 11.7288 10.2888 11.8484 10.3737 12.0798C10.4058 12.1675 10.4037 12.2858 10.4015 12.404C10.3994 12.6216 10.4142 13.2577 9.99652 14.1043C11.5142 14.6943 12.0118 14.6862 12.6467 14.4568C13.5548 14.1287 14.1704 13.0028 13.7872 11.9576C13.6 11.447 13.2697 11.1418 12.6368 10.8554L11.5575 10.369C11.1191 10.1661 10.6894 9.88767 10.286 9.58169C10.1866 9.50918 10.1201 9.4519 10.0733 9.32425C9.9943 9.10884 10.1148 8.86654 10.3237 8.79104C10.4764 8.73587 10.6153 8.76702 10.7395 8.85765C11.2701 9.26224 11.7984 9.58632 12.1981 9.75811L13.4679 9.29932C14.7376 8.84053 15.3203 7.69938 14.8669 6.46279C14.4106 5.21822 13.2254 4.7159 11.9557 5.17469L4.45782 7.88389C3.18809 8.34269 2.59734 9.48674 2.99513 10.5717Z" fill="#FFF9D4"/>
<ellipse cx="6.45281" cy="3.58345" rx="2.32048" ry="2.30366" fill="#FFF9D4"/>
<ellipse cx="76.9331" cy="3.08748" rx="2.2488" ry="2.2325" fill="#ED7846"/>
</svg>
